<svg width="273" height="43" viewBox="0 0 273 43" fill="none" xmlns="http://www.w3.org/2000/svg">
<path d="M0 0H10.7744V42.3657H0V0ZM33.9095 42.8796C30.6205 42.8796 27.6529 42.1944 25.0065 40.8241C22.3601 39.4537 20.2809 37.5506 18.7687 35.1144C17.2943 32.6782 16.5571 29.9186 16.5571 26.8354C16.5571 23.7902 17.2943 21.0496 18.7687 18.6134C20.2809 16.1774 22.3412 14.2932 24.9497 12.9608C27.5961 11.5905 30.5827 10.9054 33.9095 10.9054C37.2362 10.9054 40.2229 11.5905 42.8692 12.9608C45.5156 14.2932 47.5759 16.1774 49.0503 18.6134C50.5246 21.0115 51.2618 23.7521 51.2618 26.8354C51.2618 29.9186 50.5246 32.6782 49.0503 35.1144C47.5759 37.5506 45.5156 39.4537 42.8692 40.8241C40.2229 42.1944 37.2362 42.8796 33.9095 42.8796ZM33.9095 34.258C35.7998 34.258 37.3497 33.6108 38.5595 32.3167C39.7693 30.9845 40.3741 29.1573 40.3741 26.8354C40.3741 24.5515 39.7693 22.7626 38.5595 21.4683C37.3497 20.1742 35.7998 19.527 33.9095 19.527C32.0193 19.527 30.4692 20.1742 29.2596 21.4683C28.0498 22.7626 27.4448 24.5515 27.4448 26.8354C27.4448 29.1573 28.0498 30.9845 29.2596 32.3167C30.4692 33.6108 32.0193 34.258 33.9095 34.258ZM70.9117 31.5173L67.7362 34.7718V42.3657H56.9618V0H67.7362V22.2106L78.7374 11.4193H91.4965L78.7374 24.6656L92.5738 42.3657H79.5312L70.9117 31.5173ZM109.092 10.9054C114.195 10.9054 118.089 12.0854 120.773 14.4454C123.457 16.7673 124.799 20.3454 124.799 25.1795V42.3657H114.762V38.3689C113.212 41.376 110.188 42.8796 105.689 42.8796C103.307 42.8796 101.247 42.4609 99.508 41.6234C97.7691 40.786 96.4458 39.6632 95.5385 38.2548C94.6691 36.8083 94.2343 35.1715 94.2343 33.3443C94.2343 30.4134 95.3495 28.1487 97.5801 26.5498C99.8105 24.9131 103.251 24.0948 107.901 24.0948H114.025C113.836 20.8212 111.662 19.1845 107.504 19.1845C106.029 19.1845 104.536 19.4319 103.024 19.9267C101.512 20.3835 100.226 21.0306 99.1679 21.8679L95.5385 14.5025C97.2398 13.3606 99.3001 12.485 101.72 11.8761C104.177 11.229 106.634 10.9054 109.092 10.9054ZM108.695 36.0279C109.942 36.0279 111.039 35.7234 111.984 35.1144C112.929 34.5054 113.609 33.6108 114.025 32.4308V29.7473H109.375C106.237 29.7473 104.668 30.794 104.668 32.8876C104.668 33.8392 105.028 34.6005 105.746 35.1716C106.464 35.7424 107.447 36.0279 108.695 36.0279ZM151.647 10.9054C154.444 10.9054 156.977 11.5524 159.245 12.8467C161.552 14.1408 163.366 16.006 164.689 18.4422C166.05 20.8403 166.731 23.638 166.731 26.8354C166.731 30.0329 166.05 32.8496 164.689 35.2857C163.366 37.7219 161.552 39.606 159.245 40.9383C156.977 42.2325 154.444 42.8796 151.647 42.8796C147.601 42.8796 144.577 41.6805 142.574 39.2824V42.3657H132.309V0H143.083V14.1027C145.163 11.9713 148.018 10.9054 151.647 10.9054ZM149.378 34.258C151.268 34.258 152.819 33.6108 154.029 32.3167C155.237 30.9845 155.843 29.1573 155.843 26.8354C155.843 24.5515 155.237 22.7626 154.029 21.4683C152.819 20.1742 151.268 19.527 149.378 19.527C147.489 19.527 145.938 20.1742 144.728 21.4683C143.518 22.7626 142.914 24.5515 142.914 26.8354C142.914 29.1573 143.518 30.9845 144.728 32.3167C145.938 33.6108 147.489 34.258 149.378 34.258ZM203.862 26.9496C203.862 27.0256 203.806 27.9203 203.693 29.6331H181.351C181.804 31.2318 182.673 32.4689 183.959 33.3443C185.281 34.1818 186.927 34.6005 188.892 34.6005C190.367 34.6005 191.632 34.3912 192.692 33.9725C193.788 33.5538 194.885 32.8687 195.981 31.9171L201.651 37.855C198.665 41.2047 194.299 42.8796 188.552 42.8796C184.96 42.8796 181.804 42.1944 179.082 40.8241C176.361 39.4537 174.243 37.5506 172.731 35.1144C171.257 32.6782 170.518 29.9186 170.518 26.8354C170.518 23.7902 171.238 21.0687 172.674 18.6706C174.148 16.2344 176.171 14.3311 178.741 12.9608C181.312 11.5905 184.205 10.9054 187.417 10.9054C190.481 10.9054 193.259 11.5524 195.754 12.8467C198.249 14.1027 200.215 15.949 201.651 18.385C203.126 20.7831 203.862 23.638 203.862 26.9496ZM187.474 18.6134C185.812 18.6134 184.412 19.0892 183.278 20.0408C182.183 20.9925 181.483 22.2867 181.18 23.9235H193.768C193.467 22.2867 192.749 20.9925 191.614 20.0408C190.517 19.0892 189.138 18.6134 187.474 18.6134ZM240.956 26.9496C240.956 27.0256 240.899 27.9203 240.785 29.6331H218.442C218.896 31.2318 219.766 32.4689 221.05 33.3443C222.374 34.1818 224.018 34.6005 225.985 34.6005C227.458 34.6005 228.725 34.3912 229.783 33.9725C230.88 33.5538 231.976 32.8687 233.073 31.9171L238.744 37.855C235.756 41.2047 231.39 42.8796 225.644 42.8796C222.053 42.8796 218.896 42.1944 216.174 40.8241C213.452 39.4537 211.335 37.5506 209.823 35.1144C208.348 32.6782 207.612 29.9186 207.612 26.8354C207.612 23.7902 208.33 21.0687 209.766 18.6706C211.241 16.2344 213.263 14.3311 215.834 12.9608C218.405 11.5905 221.296 10.9054 224.51 10.9054C227.572 10.9054 230.351 11.5524 232.847 12.8467C235.341 14.1027 237.306 15.949 238.744 18.385C240.217 20.7831 240.956 23.638 240.956 26.9496ZM224.567 18.6134C222.903 18.6134 221.504 19.0892 220.371 20.0408C219.274 20.9925 218.574 22.2867 218.272 23.9235H230.861C230.558 22.2867 229.84 20.9925 228.707 20.0408C227.611 19.0892 226.23 18.6134 224.567 18.6134ZM257.804 42.8796C255.232 42.8796 252.7 42.5941 250.204 42.0232C247.709 41.4141 245.706 40.6337 244.193 39.6821L247.425 32.2596C248.824 33.135 250.488 33.8392 252.415 34.3721C254.344 34.867 256.253 35.1144 258.143 35.1144C259.883 35.1144 261.111 34.9432 261.829 34.6005C262.585 34.2199 262.963 33.687 262.963 33.0018C262.963 32.3167 262.509 31.8409 261.602 31.5744C260.733 31.2698 259.334 30.9845 257.405 30.718C254.948 30.4134 252.85 30.0138 251.111 29.519C249.41 29.0241 247.936 28.1106 246.688 26.7782C245.441 25.446 244.817 23.5809 244.817 21.1828C244.817 19.2035 245.403 17.4525 246.575 15.93C247.746 14.3692 249.449 13.1513 251.679 12.2757C253.947 11.3622 256.65 10.9054 259.787 10.9054C262.019 10.9054 264.23 11.1338 266.423 11.5905C268.616 12.0473 270.449 12.6944 271.924 13.5319L268.691 20.8974C265.969 19.3747 263.02 18.6134 259.844 18.6134C258.143 18.6134 256.896 18.8228 256.101 19.2416C255.308 19.6222 254.911 20.1361 254.911 20.7831C254.911 21.5064 255.346 22.0203 256.215 22.3247C257.084 22.5911 258.522 22.8767 260.525 23.1812C263.058 23.5618 265.156 23.9995 266.82 24.4944C268.482 24.9892 269.92 25.9028 271.129 27.2351C272.377 28.5293 273 30.3563 273 32.7163C273 34.6576 272.414 36.4085 271.242 37.9693C270.071 39.4918 268.331 40.6908 266.026 41.5663C263.758 42.4419 261.016 42.8796 257.804 42.8796Z" fill="black"/>
</svg>
